<svg width="64" height="64" viewBox="0 0 232 92" fill="none" xmlns="http://www.w3.org/2000/svg">
<circle cx="46" cy="46" r="46" fill="#0A2973"/>
<circle cx="186" cy="46" r="46" fill="#0A2973"/>
<circle cx="116" cy="46" r="45" fill="white" stroke="#009FDF" stroke-width="2"/>
<path d="M88 50.5L92.5 41H143.5L137 50.5H88Z" fill="#009FDF"/>
<path d="M80 64.5L84.5 55H135.5L129 64.5H80Z" fill="#009FDF"/>
<path d="M95 36.5L99.5 27H150.5L144 36.5H95Z" fill="#009FDF"/>
<path d="M43.7072 50.9045C43.4774 50.0467 43.4494 49.2467 43.6232 48.5045C43.7908 47.739 44.1085 47.07 44.5762 46.4974C44.9127 46.0842 45.3528 45.5936 45.8963 45.0256C46.9601 43.8958 47.3647 42.8556 47.11 41.9051L46.6721 40.2708C46.4981 39.6217 46.1599 39.2402 45.6573 39.1264C45.1547 39.0126 44.208 39.1421 42.817 39.5148C41.7507 39.8005 39.5186 40.6968 36.1208 42.2035L35.1052 38.4132C37.8804 37.2721 40.3575 36.4095 42.5367 35.8257C43.719 35.5089 44.6787 35.289 45.416 35.1659C46.1703 35.0135 46.9084 34.94 47.6304 34.9453C48.3817 34.9676 49.0127 35.0967 49.5231 35.3326C50.0274 35.5454 50.4846 35.9074 50.8949 36.4186C51.3176 36.9762 51.6315 37.6375 51.8365 38.4025L52.731 41.7407C52.9049 42.3898 52.8724 43.057 52.6336 43.7421C52.4118 44.3979 52.0438 45.0182 51.5297 45.6032C50.8782 46.3244 50.3864 46.8538 50.0544 47.1912C48.8764 48.451 48.3774 49.4171 48.5575 50.0894L48.9768 51.6542L44.2477 52.9213L43.7072 50.9045ZM44.3658 54.7532L49.7904 53.2997L51.0762 58.0984L45.6516 59.5519L44.3658 54.7532Z" fill="white"/>
<path d="M186.956 35.1247L193.042 36.7552L187.251 52.3851L184.156 51.5558L186.956 35.1247ZM182.543 52.987L187.967 54.4406L186.682 59.2393L181.257 57.7858L182.543 52.987Z" fill="white"/>
</svg>
